<svg width="84" height="48" viewBox="0 0 84 48" fill="none" xmlns="http://www.w3.org/2000/svg">
<path fill-rule="evenodd" clip-rule="evenodd" d="M84 0H0V48H59.0995L71.031 36.5L84 24V0Z" fill="#76FF03"/>
<path d="M21.616 22.2V19.528H23.968C24.192 19.528 24.4053 19.5493 24.608 19.592C24.8213 19.624 25.008 19.688 25.168 19.784C25.328 19.88 25.456 20.0133 25.552 20.184C25.648 20.3547 25.696 20.5733 25.696 20.84C25.696 21.32 25.552 21.6667 25.264 21.88C24.976 22.0933 24.608 22.2 24.16 22.2H21.616ZM19.104 17.576V29H24.64C25.152 29 25.648 28.936 26.128 28.808C26.6187 28.68 27.0507 28.4827 27.424 28.216C27.808 27.9493 28.112 27.608 28.336 27.192C28.56 26.7653 28.672 26.264 28.672 25.688C28.672 24.9733 28.496 24.3653 28.144 23.864C27.8027 23.352 27.28 22.9947 26.576 22.792C27.088 22.5467 27.472 22.232 27.728 21.848C27.9947 21.464 28.128 20.984 28.128 20.408C28.128 19.8747 28.0373 19.4267 27.856 19.064C27.6853 18.7013 27.44 18.4133 27.12 18.2C26.8 17.976 26.416 17.816 25.968 17.72C25.52 17.624 25.024 17.576 24.48 17.576H19.104ZM21.616 27.048V23.912H24.352C24.896 23.912 25.3333 24.04 25.664 24.296C25.9947 24.5413 26.16 24.9573 26.16 25.544C26.16 25.8427 26.1067 26.088 26 26.28C25.904 26.472 25.7707 26.6267 25.6 26.744C25.4293 26.8507 25.232 26.9307 25.008 26.984C24.784 27.0267 24.5493 27.048 24.304 27.048H21.616ZM30.3696 17.576V29H39.0416V26.888H32.8816V24.088H38.4176V22.136H32.8816V19.688H38.9136V17.576H30.3696ZM42.4566 25.208H40.0246C40.014 25.912 40.142 26.52 40.4086 27.032C40.6753 27.544 41.0326 27.9653 41.4806 28.296C41.9393 28.6267 42.462 28.8667 43.0486 29.016C43.646 29.176 44.2593 29.256 44.8886 29.256C45.6673 29.256 46.35 29.1653 46.9366 28.984C47.534 28.8027 48.03 28.552 48.4246 28.232C48.83 27.9013 49.134 27.512 49.3366 27.064C49.5393 26.616 49.6406 26.1307 49.6406 25.608C49.6406 24.968 49.502 24.4453 49.2246 24.04C48.958 23.624 48.638 23.2933 48.2646 23.048C47.8913 22.8027 47.5126 22.6267 47.1286 22.52C46.7553 22.4027 46.462 22.3227 46.2486 22.28C45.534 22.0987 44.9526 21.9493 44.5046 21.832C44.0673 21.7147 43.7206 21.5973 43.4646 21.48C43.2193 21.3627 43.054 21.2347 42.9686 21.096C42.8833 20.9573 42.8406 20.776 42.8406 20.552C42.8406 20.3067 42.894 20.104 43.0006 19.944C43.1073 19.784 43.2406 19.6507 43.4006 19.544C43.5713 19.4373 43.758 19.3627 43.9606 19.32C44.1633 19.2773 44.366 19.256 44.5686 19.256C44.878 19.256 45.1606 19.2827 45.4166 19.336C45.6833 19.3893 45.918 19.48 46.1206 19.608C46.3233 19.736 46.4833 19.912 46.6006 20.136C46.7286 20.36 46.8033 20.6427 46.8246 20.984H49.2566C49.2566 20.3227 49.1286 19.7627 48.8726 19.304C48.6273 18.8347 48.2913 18.4507 47.8646 18.152C47.438 17.8533 46.9473 17.64 46.3926 17.512C45.8486 17.3733 45.278 17.304 44.6806 17.304C44.1686 17.304 43.6566 17.3733 43.1446 17.512C42.6326 17.6507 42.174 17.864 41.7686 18.152C41.3633 18.44 41.0326 18.8027 40.7766 19.24C40.5313 19.6667 40.4086 20.1733 40.4086 20.76C40.4086 21.2827 40.5046 21.7307 40.6966 22.104C40.8993 22.4667 41.1606 22.7707 41.4806 23.016C41.8006 23.2613 42.1633 23.464 42.5686 23.624C42.974 23.7733 43.39 23.9013 43.8166 24.008C44.2326 24.1253 44.6433 24.232 45.0486 24.328C45.454 24.424 45.8166 24.536 46.1366 24.664C46.4566 24.792 46.7126 24.952 46.9046 25.144C47.1073 25.336 47.2086 25.5867 47.2086 25.896C47.2086 26.184 47.134 26.424 46.9846 26.616C46.8353 26.7973 46.6486 26.9413 46.4246 27.048C46.2006 27.1547 45.9606 27.2293 45.7046 27.272C45.4486 27.304 45.2086 27.32 44.9846 27.32C44.654 27.32 44.334 27.2827 44.0246 27.208C43.7153 27.1227 43.4433 27 43.2086 26.84C42.9846 26.6693 42.8033 26.4507 42.6646 26.184C42.526 25.9173 42.4566 25.592 42.4566 25.208ZM53.6633 19.688V29H56.1753V19.688H59.5993V17.576H50.2393V19.688H53.6633Z" fill="#212121"/>
</svg>
