<svg width="493" height="67" viewBox="0 0 493 67" fill="none" xmlns="http://www.w3.org/2000/svg">
<path d="M47.9996 9.5L19.9024 9.50011V9.96131L0 29.8637V57.5H27.6364L47.539 37.5976H48L47.9996 9.5Z" fill="black"/>
<path d="M71.36 16.728V51H87.104C90.752 51 93.632 50.328 95.648 48.984C98 47.352 99.2 44.808 99.2 41.352C99.2 39.048 98.624 37.176 97.52 35.832C96.368 34.44 94.688 33.528 92.432 33.096C94.16 32.424 95.456 31.512 96.368 30.264C97.28 28.92 97.76 27.288 97.76 25.368C97.76 22.776 96.848 20.712 95.072 19.176C93.152 17.544 90.464 16.728 87.056 16.728H71.36ZM76.976 21.336H85.664C87.968 21.336 89.6 21.72 90.656 22.488C91.616 23.208 92.144 24.408 92.144 26.04C92.144 27.816 91.616 29.112 90.656 29.928C89.648 30.696 87.968 31.128 85.568 31.128H76.976V21.336ZM76.976 35.736H86.432C88.928 35.736 90.752 36.168 91.904 37.032C93.008 37.896 93.584 39.288 93.584 41.256C93.584 43.176 92.816 44.52 91.28 45.384C90.08 46.056 88.4 46.392 86.288 46.392H76.976V35.736ZM104.501 16.728V51H130.037V46.2H110.117V35.832H128.069V31.032H110.117V21.528H129.221V16.728H104.501ZM147.394 16.056C143.698 16.056 140.674 16.872 138.273 18.552C135.682 20.28 134.434 22.68 134.434 25.704C134.434 28.728 135.73 31.032 138.37 32.616C139.378 33.192 142.018 34.152 146.242 35.496C150.034 36.648 152.242 37.416 152.914 37.752C155.026 38.808 156.13 40.248 156.13 42.072C156.13 43.512 155.362 44.616 153.922 45.48C152.482 46.296 150.466 46.728 147.97 46.728C145.138 46.728 143.074 46.2 141.73 45.24C140.242 44.136 139.33 42.264 138.946 39.672H133.378C133.618 44.04 135.202 47.208 138.082 49.224C140.434 50.856 143.746 51.672 147.97 51.672C152.338 51.672 155.746 50.76 158.146 49.032C160.546 47.256 161.746 44.808 161.746 41.736C161.746 38.568 160.258 36.12 157.281 34.344C155.938 33.576 152.962 32.424 148.306 30.984C145.138 29.976 143.17 29.256 142.45 28.872C140.818 28.008 140.05 26.808 140.05 25.368C140.05 23.736 140.722 22.536 142.162 21.816C143.314 21.192 144.946 20.904 147.106 20.904C149.602 20.904 151.522 21.336 152.77 22.296C154.018 23.208 154.93 24.744 155.41 26.856H160.978C160.642 23.112 159.25 20.328 156.85 18.552C154.594 16.872 151.426 16.056 147.394 16.056ZM163.923 16.728V21.528H175.155V51H180.771V21.528H192.003V16.728H163.923ZM226.959 16.056C221.487 16.056 217.311 17.832 214.431 21.48C211.887 24.648 210.639 28.824 210.639 33.912C210.639 39.096 211.839 43.224 214.287 46.296C217.071 49.848 221.343 51.672 227.055 51.672C230.751 51.672 233.919 50.616 236.559 48.504C239.391 46.248 241.167 43.128 241.935 39.096H236.463C235.791 41.688 234.639 43.656 233.007 44.952C231.471 46.104 229.455 46.728 227.007 46.728C223.263 46.728 220.479 45.528 218.703 43.224C217.071 41.064 216.255 37.944 216.255 33.912C216.255 29.976 217.071 26.904 218.751 24.696C220.575 22.2 223.263 21 226.863 21C229.263 21 231.231 21.48 232.767 22.536C234.351 23.592 235.407 25.224 235.983 27.48H241.455C240.927 24.024 239.439 21.24 236.943 19.224C234.351 17.112 230.991 16.056 226.959 16.056ZM247.235 16.728V51H252.851V35.832H270.227V51H275.843V16.728H270.227V31.032H252.851V16.728H247.235ZM292.323 16.728L279.219 51H285.219L288.339 42.408H302.691L305.811 51H311.811L298.707 16.728H292.323ZM290.019 37.8L295.443 22.776H295.635L301.011 37.8H290.019ZM363.11 16.728V51H388.646V46.2H368.726V35.832H386.678V31.032H368.726V21.528H387.83V16.728H363.11ZM393.907 16.728V51H399.523V25.944H399.715L416.851 51H422.323V16.728H416.659V41.448H416.467L399.523 16.728H393.907ZM443.943 16.056C438.855 16.056 434.823 17.784 431.847 21.336C429.015 24.648 427.623 28.872 427.623 34.008C427.623 39.096 429.015 43.272 431.847 46.488C434.871 49.944 439.095 51.672 444.567 51.672C447.639 51.672 450.375 51.288 452.871 50.52C455.223 49.752 457.287 48.696 459.111 47.256V32.76H444.423V37.56H453.495V44.616C452.343 45.288 451.143 45.816 449.799 46.2C448.359 46.584 446.823 46.776 445.191 46.776C441.015 46.776 437.943 45.624 435.975 43.32C434.151 41.16 433.239 38.04 433.239 34.008C433.239 29.784 434.247 26.568 436.311 24.264C438.183 22.056 440.727 21 443.943 21C446.535 21 448.647 21.528 450.231 22.632C451.767 23.736 452.823 25.368 453.303 27.576H458.967C458.343 23.736 456.807 20.904 454.359 18.984C451.815 17.016 448.359 16.056 443.943 16.056ZM465.344 16.728V51H490.88V46.2H470.96V35.832H488.912V31.032H470.96V21.528H490.064V16.728H465.344Z" fill="black"/>
<path d="M366 34H302.5" stroke="black" stroke-width="5"/>
</svg>
