<svg width="434" height="122" viewBox="0 0 434 122" fill="none" xmlns="http://www.w3.org/2000/svg">
<rect width="433.031" height="121.053" fill="black"/>
<path d="M31.3073 36.4183C37.0597 29.5831 44.8533 26.2578 54.6881 26.2578C63.2239 26.2578 69.9042 28.1052 74.8216 31.8923C79.5534 35.587 82.5224 41.0367 83.7286 48.4262L72.7804 48.4262C71.8526 44.1773 69.8114 41.0367 66.8424 38.9123C63.7806 36.7878 59.6983 35.7717 54.6881 35.7717C48.4718 35.7717 43.5544 37.8038 39.9359 42.0528C35.9464 46.4865 33.998 52.6751 33.998 60.8035C33.998 68.5625 35.7608 74.5664 39.2865 78.723C43.0905 83.1567 49.0285 85.3735 57.1004 85.3735C60.255 85.3735 63.224 85.004 66.0074 84.2651C68.6053 83.5261 70.9248 82.5101 73.1515 81.2169V67.6388H55.6159V58.402H84.0069V86.2972C80.4812 89.0682 76.4916 91.1003 71.9454 92.5782C67.1208 94.0561 61.8323 94.7951 55.8943 94.7951C45.3172 94.7951 37.1525 91.4698 31.3073 84.8193C25.8332 78.6306 23.1426 70.5946 23.1426 60.8035C23.1426 50.9201 25.8332 42.7917 31.3073 36.4183Z" fill="white"/>
<path fill-rule="evenodd" clip-rule="evenodd" d="M96.0554 93.5019L96.0554 27.551L125.56 27.551C132.333 27.551 137.714 29.0289 141.611 32.077C145.693 35.4023 147.827 40.2054 147.827 46.4865C147.827 49.9041 146.899 52.9522 145.044 55.6309C144.624 56.2384 144.169 56.803 143.681 57.3247L284.335 57.3247V27.551H295.191L327.943 75.1206H328.314V27.551H339.262V93.5019L328.685 93.5019L295.562 45.2857H295.191V93.5019H284.335V65.0221L142.95 65.0221C144.811 66.9804 145.942 69.6903 146.343 73.1809L147.456 83.8032C147.827 87.8674 149.219 91.1003 151.446 93.5019H139.662C138.085 91.4698 137.157 88.6064 136.786 84.9117L135.951 76.7833C135.58 73.1809 134.467 70.5946 132.611 69.0243C130.663 67.3617 127.786 66.6227 124.075 66.6227H106.911L106.911 93.5019H96.0554ZM124.075 36.7878H106.911V57.3859H124.075C128.343 57.3859 131.59 56.4622 133.817 54.7072C135.858 52.8599 136.879 50.2736 136.879 46.9483C136.879 43.3459 135.858 40.7596 133.817 39.1894C131.776 37.5267 128.529 36.7878 124.075 36.7878Z" fill="white"/>
<path d="M372.424 67.2693L346.259 27.551H359.342L377.898 57.2012L396.361 27.551L409.443 27.551L383.279 67.2693V93.5019H372.424V67.2693Z" fill="white"/>
</svg>
