<svg width="168" height="47" viewBox="0 0 168 47" fill="none" xmlns="http://www.w3.org/2000/svg">
<rect width="167.985" height="46.6103" transform="translate(0 0.194824)" fill="black"/>
<path d="M12.17 14.1397C14.4035 11.4859 17.4294 10.1948 21.2479 10.1948C24.562 10.1948 27.1557 10.9121 29.0649 12.3825C30.9021 13.817 32.0548 15.9329 32.5231 18.8019H28.2724C27.9122 17.1522 27.1197 15.9329 25.9669 15.108C24.7781 14.2832 23.1931 13.8887 21.2479 13.8887C18.8343 13.8887 16.9251 14.6777 15.5202 16.3274C13.9712 18.0488 13.2147 20.4516 13.2147 23.6076C13.2147 26.6201 13.8992 28.9511 15.268 30.565C16.745 32.2864 19.0505 33.1471 22.1845 33.1471C23.4093 33.1471 24.562 33.0037 25.6427 32.7167C26.6514 32.4298 27.5519 32.0354 28.4165 31.5333V26.2614H21.6081V22.6751L32.6312 22.6751V33.5057C31.2623 34.5816 29.7133 35.3706 27.9482 35.9444C26.075 36.5182 24.0217 36.8051 21.7162 36.8051C17.6095 36.8051 14.4395 35.5141 12.17 32.9319C10.0447 30.5291 9 27.409 9 23.6076C9 19.7702 10.0447 16.6143 12.17 14.1397Z" fill="#76FF03"/>
<path fill-rule="evenodd" clip-rule="evenodd" d="M37.3092 36.303V10.6969L48.7645 10.6969C51.3942 10.6969 53.4835 11.2707 54.9965 12.4542C56.5815 13.7453 57.4101 15.6101 57.4101 18.0488C57.4101 19.3757 57.0498 20.5592 56.3294 21.5992C56.1665 21.8351 55.9899 22.0543 55.8002 22.2569L110.411 22.2569V10.6969L114.626 10.6969L127.342 29.1663H127.486V10.6969H131.737V36.303L127.63 36.303L114.77 17.5826H114.626V36.303H110.411V25.2455L55.5165 25.2455C56.2391 26.0058 56.6781 27.0579 56.8337 28.4132L57.266 32.5374C57.4101 34.1154 57.9504 35.3706 58.815 36.303H54.24C53.6276 35.5141 53.2674 34.4023 53.1233 32.9678L52.7991 29.8119C52.655 28.4132 52.2227 27.409 51.5023 26.7994C50.7458 26.1538 49.6291 25.8669 48.1881 25.8669H41.5239L41.5239 36.303H37.3092ZM48.1881 14.2832L41.5239 14.2832V22.2806H48.1881C49.8452 22.2806 51.106 21.922 51.9706 21.2406C52.7631 20.5233 53.1593 19.5192 53.1593 18.2281C53.1593 16.8295 52.7631 15.8253 51.9706 15.2156C51.1781 14.5701 49.9173 14.2832 48.1881 14.2832Z" fill="#76FF03"/>
<path d="M144.612 26.118L134.453 10.6969L139.533 10.6969L146.737 22.2089L153.906 10.6969L158.985 10.6969L148.827 26.118V36.303H144.612V26.118Z" fill="#76FF03"/>
</svg>
