<svg width="401" height="72" viewBox="0 0 401 72" fill="none" xmlns="http://www.w3.org/2000/svg">
<path d="M8.47542 10.5471C14.4467 3.45179 22.5369 0 32.7459 0C41.6065 0 48.5409 1.91766 53.6455 5.84886C58.5573 9.68418 61.6393 15.3413 62.8913 23.0119L51.5266 23.0119C50.5635 18.6013 48.4446 15.3413 45.3627 13.136C42.1844 10.9307 37.9467 9.87595 32.7459 9.87595C26.293 9.87595 21.1885 11.9854 17.4324 16.396C13.291 20.9984 11.2684 27.4225 11.2684 35.8602C11.2684 43.9144 13.0984 50.1468 16.7582 54.4615C20.707 59.0639 26.8709 61.3651 35.25 61.3651C38.5246 61.3651 41.6065 60.9816 44.4959 60.2145C47.1926 59.4474 49.6004 58.3927 51.9119 57.0504V42.9556H33.709V33.3673H63.1803V62.3239C59.5204 65.2004 55.3791 67.3098 50.6598 68.844C45.6516 70.3781 40.1619 71.1452 33.9979 71.1452C23.0184 71.1452 14.543 67.6934 8.47542 60.7898C2.79304 54.3657 0 46.0238 0 35.8602C0 25.6008 2.79304 17.1631 8.47542 10.5471Z" fill="white"/>
<path fill-rule="evenodd" clip-rule="evenodd" d="M75.6872 69.8028L75.6872 1.34236L106.314 1.34236C113.345 1.34236 118.931 2.87649 122.976 6.04063C127.214 9.49242 129.429 14.4783 129.429 20.9984C129.429 24.546 128.466 27.7102 126.54 30.4908C126.104 31.1214 125.632 31.7075 125.125 32.249L271.132 32.249V1.34236L282.4 1.34236L316.398 50.7221H316.783V1.34236L328.148 1.34236V69.8028H317.168L282.785 19.7519H282.4V69.8028H271.132V40.2393L124.366 40.2393C126.298 42.2721 127.472 45.0851 127.888 48.7086L129.044 59.7351C129.429 63.954 130.874 67.3099 133.185 69.8028L120.954 69.8028C119.316 67.6934 118.353 64.721 117.968 60.8857L117.101 52.448C116.716 48.7086 115.56 46.0238 113.634 44.3938C111.611 42.6679 108.626 41.9009 104.773 41.9009H86.9557L86.9557 69.8028H75.6872ZM104.773 10.9307L86.9557 10.9307V32.3126H104.773C109.204 32.3126 112.574 31.3537 114.886 29.532C117.005 27.6143 118.064 24.9296 118.064 21.4778C118.064 17.7383 117.005 15.0536 114.886 13.4236C112.767 11.6977 109.396 10.9307 104.773 10.9307Z" fill="white"/>
<path d="M362.572 42.572L335.412 1.34236L348.992 1.34236L368.254 32.1208L387.42 1.34236L401 1.34236L373.84 42.572V69.8028H362.572V42.572Z" fill="white"/>
</svg>
