<svg width="199" height="60" viewBox="0 0 199 60" fill="none" xmlns="http://www.w3.org/2000/svg">
<path d="M1 59V1H198V28.7023L167.587 59H1Z" stroke="black" stroke-width="2"/>
<path d="M61.68 21.864V39H64.488V27.192H64.584L69.624 39H72.048L77.088 27.192H77.184V39H79.992V21.864H76.704L70.896 35.304H70.8L64.968 21.864H61.68ZM90.9677 21.528C88.3277 21.528 86.2637 22.368 84.7757 24.096C83.3357 25.728 82.6397 27.84 82.6397 30.456C82.6397 33.048 83.3357 35.16 84.7757 36.792C86.2637 38.472 88.3277 39.336 90.9677 39.336C93.5837 39.336 95.6477 38.496 97.1597 36.816C98.5997 35.208 99.3197 33.096 99.3197 30.456C99.3197 27.816 98.5997 25.68 97.1597 24.072C95.6477 22.368 93.5837 21.528 90.9677 21.528ZM90.9677 24C92.7437 24 94.1117 24.552 95.0717 25.704C96.0077 26.856 96.4877 28.44 96.4877 30.456C96.4877 32.472 96.0077 34.032 95.0717 35.16C94.1117 36.288 92.7437 36.864 90.9677 36.864C89.1917 36.864 87.7997 36.264 86.8397 35.088C85.9037 33.936 85.4477 32.4 85.4477 30.456C85.4477 28.488 85.9037 26.952 86.8397 25.8C87.8237 24.6 89.1917 24 90.9677 24ZM101.969 21.864V39H104.777V32.016H109.217C110.177 32.016 110.921 32.208 111.425 32.64C111.905 33.048 112.193 33.72 112.289 34.656L112.505 36.768C112.601 37.728 112.841 38.472 113.249 39H116.297C115.721 38.376 115.361 37.536 115.265 36.48L114.977 33.72C114.785 32.04 113.945 31.056 112.457 30.72V30.672C113.369 30.432 114.113 29.928 114.641 29.16C115.121 28.464 115.361 27.672 115.361 26.784C115.361 25.152 114.809 23.904 113.753 23.04C112.745 22.248 111.353 21.864 109.601 21.864H101.969ZM104.777 24.264H109.217C110.369 24.264 111.209 24.456 111.737 24.888C112.265 25.296 112.529 25.968 112.529 26.904C112.529 27.768 112.265 28.44 111.737 28.92C111.161 29.376 110.321 29.616 109.217 29.616H104.777V24.264ZM118.703 21.864V39H131.471V36.6H121.511V31.416H130.487V29.016H121.511V24.264H131.063V21.864H118.703Z" fill="black"/>
</svg>
