<svg width="84" height="48" viewBox="0 0 84 48" fill="none" xmlns="http://www.w3.org/2000/svg">
<path fill-rule="evenodd" clip-rule="evenodd" d="M84 0H0V48H59.0995L71.031 36.5L84 24V0Z" fill="#212121"/>
<path d="M19.104 17.576V29H21.456V21.352H21.488L26.24 29H28.752V17.576H26.4V25.24H26.368L21.6 17.576H19.104ZM30.9634 17.576V29H39.6354V26.888H33.4754V24.088H39.0114V22.136H33.4754V19.688H39.5074V17.576H30.9634ZM52.2184 29L55.2904 17.576H52.8264L50.9544 25.448H50.9224L48.9704 17.576H46.6184L44.6344 25.352H44.6024L42.7944 17.576H40.2824L43.3064 29H45.8504L47.7544 21.224H47.7864L49.7224 29H52.2184Z" fill="#76FF03"/>
</svg>
