<svg width="145" height="29" viewBox="0 0 145 29" fill="none" xmlns="http://www.w3.org/2000/svg">
<path d="M23.9998 2.5L9.95122 2.50005V2.73065L0 12.6818V26.5H13.8182L23.7695 16.5488H24L23.9998 2.5Z" fill="black"/>
<path d="M52.144 14.92V12.928H48.904L49.792 7.792L47.392 7.456L46.6 12.928H42.136L41.704 7.432L39.256 7.672L39.832 12.928H36.52V14.92H52.144ZM54.04 21.04V19.096H34.72V21.04H54.04ZM52.168 6.232V4.264H36.496V6.232H52.168ZM72.9336 15.64V13.648H60.4296V10.72H72.3096V4H57.8856V5.968H69.8616V8.728H57.9576V15.64H63.8856V19.216H55.4856V21.184H74.8056V19.216H66.3336V15.64H72.9336ZM94.5633 23.728V21.784H82.4193V20.104H93.8433V14.656H79.8513V16.624H91.3953V18.28H79.9473V23.728H94.5633ZM81.1713 6.688L78.7713 6.904L79.2753 11.32C78.2433 11.344 77.2353 11.368 76.3473 11.368L76.6833 13.432C78.6513 13.432 80.9073 13.36 82.9953 13.24C85.5153 13.12 88.1793 12.904 89.7393 12.64L89.5473 10.768C88.6593 10.864 87.6033 10.984 86.4513 11.056L86.9073 6.904L84.5313 6.664L84.2673 11.2C83.3313 11.248 82.4193 11.248 81.4833 11.272L81.1713 6.688ZM93.8433 13.552V2.512H91.3953V13.552H93.8433ZM88.8513 5.704V3.736H77.0433V5.704H88.8513ZM114.17 23.92V16.144H122.642V14.2H103.322V16.144H111.722V23.92H114.17ZM121.826 10.096C118.37 9.76 114.314 7.144 114.314 4.072V2.992H111.722V4.072C111.722 7.144 108.05 9.664 104.258 10.096L105.338 12.112C108.578 11.536 112.058 9.472 112.994 7.096C114.074 9.472 117.53 11.56 120.698 12.088L121.826 10.096ZM141.871 19.696C141.871 17.128 139.207 15.448 134.575 15.448C129.967 15.448 127.327 17.128 127.327 19.696C127.327 22.216 129.967 23.896 134.575 23.896C139.207 23.896 141.871 22.216 141.871 19.696ZM124.831 5.92H129.271V6.112C129.271 9.28 126.991 11.848 123.991 12.952L125.479 14.872C127.615 14.056 129.919 11.968 130.543 9.88C131.455 11.872 133.567 13.552 135.319 14.248L136.687 12.304C134.191 11.536 131.815 9.184 131.815 5.992V5.92H136.087V3.88H124.831V5.92ZM135.751 9.736H139.231V15.376H141.703V2.512H139.231V7.696H135.751V9.736ZM134.575 17.464C137.599 17.464 139.351 18.28 139.351 19.696C139.351 21.088 137.599 21.904 134.575 21.904C131.623 21.904 129.871 21.088 129.871 19.696C129.871 18.28 131.623 17.464 134.575 17.464Z" fill="black"/>
</svg>
