<svg width="165" height="29" viewBox="0 0 165 29" fill="none" xmlns="http://www.w3.org/2000/svg">
<path d="M23.9998 2.5L9.95122 2.50005V2.73065L0 12.6818V26.5H13.8182L23.7695 16.5488H24L23.9998 2.5Z" fill="black"/>
<path d="M48.928 17.944C47.344 18.16 45.088 18.304 42.904 18.4V16.528C45.328 16.192 46.96 14.824 46.96 13C46.96 10.864 44.8 9.376 41.728 9.376C38.704 9.376 36.544 10.864 36.544 13C36.544 14.776 38.104 16.144 40.456 16.504V18.496C38.488 18.544 36.52 18.544 34.696 18.544L35.08 20.584C39.928 20.536 44.656 20.392 49.12 19.864L48.928 17.944ZM52.6 2.512H50.128V23.896H52.6V2.512ZM47.992 8.608V6.688H35.44V8.608H47.992ZM44.44 13C44.44 13.984 43.312 14.68 41.728 14.68C40.216 14.68 39.064 13.984 39.064 13C39.064 11.992 40.216 11.296 41.728 11.296C43.312 11.296 44.44 11.992 44.44 13ZM38.608 5.536H44.824V3.568H38.608V5.536ZM67.4136 6.976C67.4136 4.648 65.2056 2.992 62.1096 2.992C59.0376 2.992 56.7576 4.648 56.7576 6.928C56.7576 9.328 59.0376 10.864 62.1096 10.864C65.2056 10.864 67.4136 9.304 67.4136 6.976ZM66.7416 16.72H70.9176V19H73.3656V2.512H70.9176V14.92H66.7416V16.72ZM73.7496 23.344V21.376H60.7176V17.056H58.2696V23.344H73.7496ZM64.0056 17.92V13.888C65.8536 13.768 67.7256 13.6 69.5496 13.384L69.3816 11.56C67.4856 11.776 65.2296 11.944 62.3496 12.04C59.9976 12.136 57.6696 12.16 55.2456 12.16L55.5816 14.2C57.5736 14.176 59.5416 14.128 61.5336 14.032V17.92H64.0056ZM64.9896 6.976C64.9896 8.08 63.8856 8.992 62.1096 8.992C60.3336 8.992 59.2056 8.08 59.2056 6.976C59.2056 5.848 60.3336 4.888 62.1096 4.888C63.8856 4.888 64.9896 5.848 64.9896 6.976ZM94.0353 19.696C94.0353 17.128 91.3713 15.448 86.7393 15.448C82.1313 15.448 79.4913 17.128 79.4913 19.696C79.4913 22.216 82.1313 23.896 86.7393 23.896C91.3713 23.896 94.0353 22.216 94.0353 19.696ZM76.9953 5.92H81.4353V6.112C81.4353 9.28 79.1553 11.848 76.1553 12.952L77.6433 14.872C79.7793 14.056 82.0833 11.968 82.7073 9.88C83.6193 11.872 85.7313 13.552 87.4833 14.248L88.8513 12.304C86.3553 11.536 83.9793 9.184 83.9793 5.992V5.92H88.2513V3.88H76.9953V5.92ZM87.9153 9.736H91.3953V15.376H93.8673V2.512H91.3953V7.696H87.9153V9.736ZM86.7393 17.464C89.7633 17.464 91.5153 18.28 91.5153 19.696C91.5153 21.088 89.7633 21.904 86.7393 21.904C83.7873 21.904 82.0353 21.088 82.0353 19.696C82.0353 18.28 83.7873 17.464 86.7393 17.464ZM113.913 14.824V4.024H111.465V7.48H101.889V4.048H99.4409V14.824H105.417V19.216H97.0169V21.184H116.337V19.216H107.865V14.824H113.913ZM111.465 12.856H101.889V9.424H111.465V12.856ZM134.935 23.92V16.144H143.407V14.2H124.087V16.144H132.487V23.92H134.935ZM142.591 10.096C139.135 9.76 135.079 7.144 135.079 4.072V2.992H132.487V4.072C132.487 7.144 128.815 9.664 125.023 10.096L126.103 12.112C129.343 11.536 132.823 9.472 133.759 7.096C134.839 9.472 138.295 11.56 141.463 12.088L142.591 10.096ZM162.637 19.696C162.637 17.128 159.973 15.448 155.341 15.448C150.733 15.448 148.093 17.128 148.093 19.696C148.093 22.216 150.733 23.896 155.341 23.896C159.973 23.896 162.637 22.216 162.637 19.696ZM145.597 5.92H150.037V6.112C150.037 9.28 147.757 11.848 144.757 12.952L146.245 14.872C148.381 14.056 150.685 11.968 151.309 9.88C152.221 11.872 154.333 13.552 156.085 14.248L157.453 12.304C154.957 11.536 152.581 9.184 152.581 5.992V5.92H156.853V3.88H145.597V5.92ZM156.517 9.736H159.997V15.376H162.469V2.512H159.997V7.696H156.517V9.736ZM155.341 17.464C158.365 17.464 160.117 18.28 160.117 19.696C160.117 21.088 158.365 21.904 155.341 21.904C152.389 21.904 150.637 21.088 150.637 19.696C150.637 18.28 152.389 17.464 155.341 17.464Z" fill="black"/>
</svg>
